<?xml version="1.0" encoding="iso-8859-1"?>
<!-- Generator: Adobe Illustrator 16.0.0, SVG Export Plug-In . SVG Version: 6.00 Build 0)  -->
<!DOCTYPE svg PUBLIC "-//W3C//DTD SVG 1.1//EN" "http://www.w3.org/Graphics/SVG/1.1/DTD/svg11.dtd">
<svg xmlns="http://www.w3.org/2000/svg" xmlns:xlink="http://www.w3.org/1999/xlink" version="1.1" id="Capa_1" x="0px" y="0px" width="512px" height="512px" viewBox="0 0 313.199 313.2" style="enable-background:new 0 0 313.199 313.2;" xml:space="preserve">
<g>
	<g>
		<polygon points="190.292,178.696 84.976,290.461 84.976,306.951 303.823,187.123 274.788,132.429   " fill="#FFFFFF"/>
		<polygon points="84.976,282.593 174.962,187.091 256.452,100.607 215.778,61.359 138.928,142.92 105.793,224.965 84.976,276.513       " fill="#FFFFFF"/>
		<polygon points="131.524,146.847 134.304,139.957 177.023,34.182 124.616,13.015 84.976,111.159 84.976,192.312 84.976,196.246     84.976,200.18 84.976,236.366 84.976,262.095 98.32,229.057 128.737,153.737   " fill="#FFFFFF"/>
		<path d="M9.376,283.922v4.308v24.97h70.2v-3.29v-13.711v-3.935v-2.373v-1.561v-5.653v-7.203v-36.155v-33.401v-3.944v-3.935V124.53    v-7.204v-7.208V0h-70.2V283.922z M70.854,297.058c0.113,0.048,0.19,0.147,0.298,0.2c0.762,0.391,1.371,0.965,1.864,1.65    c0.042,0.059,0.079,0.116,0.124,0.18c0.551,0.839,0.949,1.782,0.949,2.863c0,0.026-0.016,0.053-0.016,0.079    c-0.016,0.997-0.367,1.878-0.86,2.663c-0.77,1.25-2.006,2.104-3.499,2.384c-0.166,0.031-0.324,0.084-0.49,0.095    c-0.156,0.016-0.292,0.09-0.454,0.09c-1.959,0-3.607-1.107-4.524-2.689c-0.119-0.206-0.288-0.369-0.38-0.591    c-0.258-0.627-0.409-1.312-0.409-2.035c0-0.628,0.156-1.213,0.356-1.767c0.733-2.057,2.65-3.549,4.957-3.549    c0.066,0,0.119,0.031,0.185,0.042C69.63,296.694,70.271,296.81,70.854,297.058z M47.176,21.6h21.6v21.6h-21.6V21.6z M47.176,70.2    h21.6V91.8h-21.6V70.2z M47.176,118.8h21.6v18.056v3.544h-1.432H47.176V118.8z M47.176,167.4h9.26h2.911h2.911h6.518V189H53.538    h-2.911h-2.911h-0.541V167.4z M47.176,236.366v-3.939V216h15.478h3.71h2.413v1.376V237.6h-19.05h-2.55V236.366z M47.176,284.127    V264.6h4.762h16.838v21.6h-5.374H49.325h-2.149V284.127z M20.176,21.6h21.6v21.6h-21.6V21.6z M20.176,70.2h21.6V91.8h-21.6V70.2z     M20.176,118.8h21.6v21.6h-21.6V118.8z M20.176,167.4h21.6V189h-21.6V167.4z M20.176,216h16.632h2.917h2.051v2.119v19.48h-7.868    h-2.911h-2.917h-7.905V216z M20.176,271.598v-6.027V264.6h2.829h0.056h3.886h14.829v14.312v3.754v3.533h-0.227H20.176V271.598z" fill="#FFFFFF"/>
	</g>
</g>
<g>
</g>
<g>
</g>
<g>
</g>
<g>
</g>
<g>
</g>
<g>
</g>
<g>
</g>
<g>
</g>
<g>
</g>
<g>
</g>
<g>
</g>
<g>
</g>
<g>
</g>
<g>
</g>
<g>
</g>
</svg>
