<?xml version="1.0" encoding="iso-8859-1"?>
<!-- Generator: Adobe Illustrator 19.0.0, SVG Export Plug-In . SVG Version: 6.00 Build 0)  -->
<svg xmlns="http://www.w3.org/2000/svg" xmlns:xlink="http://www.w3.org/1999/xlink" version="1.1" id="Layer_1" x="0px" y="0px" viewBox="0 0 512 512" style="enable-background:new 0 0 512 512;" xml:space="preserve" width="512px" height="512px">
<g>
	<g>
		<rect y="177.369" width="240.327" height="63.06" fill="#FFFFFF"/>
	</g>
</g>
<g>
	<g>
		<rect x="271.673" y="177.369" width="240.327" height="63.06" fill="#FFFFFF"/>
	</g>
</g>
<g>
	<g>
		<rect y="271.786" width="240.327" height="237.046" fill="#FFFFFF"/>
	</g>
</g>
<g>
	<g>
		<rect x="271.673" y="271.786" width="240.327" height="237.046" fill="#FFFFFF"/>
	</g>
</g>
<g>
	<g>
		<path d="M457.226,32.269c-11.797-18.223-31.817-29.1-53.551-29.1c-18.108,0-34.816,7.387-47.041,20.783L256,134.251    L155.366,23.952c-12.225-13.396-28.933-20.783-47.041-20.783c-21.734,0-41.754,10.877-53.551,29.1    C43.99,48.925,41.587,69.217,48.18,87.941c6.604,18.714,21.201,33.008,40.051,39.225l57.271,18.86l99.318,32.705    c2.56,0.846,5.569,1.62,8.202,1.985c0.972,0.125,1.964,0.167,2.978,0.167s2.006-0.042,2.978-0.167    c2.633-0.366,5.642-1.139,8.202-1.985l99.318-32.705l57.271-18.86c18.85-6.217,33.447-20.511,40.051-39.225    C470.413,69.217,468.01,48.925,457.226,32.269z" fill="#FFFFFF"/>
	</g>
</g>
<g>
</g>
<g>
</g>
<g>
</g>
<g>
</g>
<g>
</g>
<g>
</g>
<g>
</g>
<g>
</g>
<g>
</g>
<g>
</g>
<g>
</g>
<g>
</g>
<g>
</g>
<g>
</g>
<g>
</g>
</svg>
